<svg width="110" height="20" viewBox="0 0 110 20" fill="none" xmlns="http://www.w3.org/2000/svg">
<g clip-path="url(#clip0_1_49)">
<path d="M11.5804 11.6047C11.5804 12.8927 11.0834 13.9427 10.0894 14.7547C9.10937 15.5527 7.80037 15.9517 6.16237 15.9517C4.37037 15.9517 2.92837 15.4967 1.83637 14.5867C0.758372 13.6627 0.163372 12.5007 0.0513722 11.1007H2.40337C2.68337 13.0607 3.90837 14.0407 6.07837 14.0407C7.03037 14.0407 7.82137 13.8377 8.45137 13.4317C9.09537 13.0257 9.41737 12.4797 9.41737 11.7937C9.41737 11.4717 9.34037 11.1847 9.18637 10.9327C9.04637 10.6807 8.86437 10.4777 8.64037 10.3237C8.43037 10.1557 8.14337 10.0017 7.77937 9.86167C7.42937 9.72167 7.09337 9.61667 6.77137 9.54667C6.46337 9.46267 6.07837 9.36467 5.61637 9.25267C5.40637 9.21067 5.25237 9.17567 5.15437 9.14767C4.59437 9.00767 4.10437 8.86767 3.68437 8.72767C3.27837 8.58767 2.85137 8.39867 2.40337 8.16067C1.96937 7.92267 1.60537 7.65667 1.31137 7.36267C1.03137 7.06867 0.800372 6.69767 0.618372 6.24967C0.436372 5.80167 0.345372 5.30467 0.345372 4.75867C0.345372 3.58267 0.835372 2.56767 1.81537 1.71367C2.79537 0.845668 4.06937 0.411668 5.63737 0.411668C7.21937 0.411668 8.52837 0.838668 9.56437 1.69267C10.6144 2.54667 11.2304 3.66667 11.4124 5.05267H9.12337C9.01137 4.26867 8.65437 3.61767 8.05237 3.09967C7.45037 2.58167 6.66637 2.32267 5.70037 2.32267C4.83237 2.32267 4.08337 2.53267 3.45337 2.95267C2.82337 3.37267 2.50837 3.93267 2.50837 4.63267C2.50837 4.91267 2.54337 5.16467 2.61337 5.38867C2.68337 5.59867 2.80937 5.78767 2.99137 5.95567C3.17337 6.12367 3.34137 6.26367 3.49537 6.37567C3.64937 6.48767 3.89437 6.59967 4.23037 6.71167C4.56637 6.80967 4.82537 6.88667 5.00737 6.94267C5.18937 6.98467 5.50437 7.06167 5.95237 7.17367C6.40037 7.27167 6.71537 7.34167 6.89737 7.38367C7.56937 7.53767 8.14337 7.70567 8.61937 7.88767C9.09537 8.06967 9.57837 8.32167 10.0684 8.64367C10.5724 8.95167 10.9504 9.35767 11.2024 9.86167C11.4544 10.3517 11.5804 10.9327 11.5804 11.6047ZM16.5154 2.70067C16.2494 2.96667 15.9204 3.09967 15.5284 3.09967C15.1364 3.09967 14.8004 2.96667 14.5204 2.70067C14.2544 2.43467 14.1214 2.10567 14.1214 1.71367C14.1214 1.32167 14.2544 0.992668 14.5204 0.726668C14.8004 0.446668 15.1364 0.306668 15.5284 0.306668C15.9204 0.306668 16.2494 0.446668 16.5154 0.726668C16.7814 0.992668 16.9144 1.32167 16.9144 1.71367C16.9144 2.10567 16.7814 2.43467 16.5154 2.70067ZM14.5414 4.75867H16.4944V15.7417H14.5414V4.75867ZM31.9504 4.54867C33.0144 4.54867 33.8754 4.91967 34.5334 5.66167C35.2054 6.40367 35.5414 7.36267 35.5414 8.53867V15.7417H33.5884V8.70667C33.5884 7.93667 33.3924 7.35567 33.0004 6.96367C32.6224 6.55767 32.1044 6.35467 31.4464 6.35467C30.6764 6.35467 30.0394 6.65567 29.5354 7.25767C29.0454 7.84567 28.8004 8.60167 28.8004 9.52567V15.7417H26.8474V8.70667C26.8474 7.93667 26.6514 7.35567 26.2594 6.96367C25.8814 6.55767 25.3634 6.35467 24.7054 6.35467C23.9354 6.35467 23.2984 6.66267 22.7944 7.27867C22.3044 7.88067 22.0594 8.63667 22.0594 9.54667V15.7417H20.1064V4.75867H22.0594V6.16567H22.1014C22.8574 5.08767 23.8724 4.54867 25.1464 4.54867C26.5324 4.54867 27.5544 5.17867 28.2124 6.43867C29.0944 5.17867 30.3404 4.54867 31.9504 4.54867ZM48.0828 14.3767C47.1448 15.4267 45.9268 15.9517 44.4288 15.9517C42.9308 15.9517 41.7268 15.3637 40.8168 14.1877H40.7748V19.6897H38.8218V4.75867H40.7748V6.29167H40.8168C41.7268 5.12967 42.9308 4.54867 44.4288 4.54867C45.9268 4.54867 47.1448 5.07367 48.0828 6.12367C49.0348 7.15967 49.5108 8.53167 49.5108 10.2397C49.5108 11.9477 49.0348 13.3267 48.0828 14.3767ZM44.1138 6.37567C43.0778 6.37567 42.2518 6.74667 41.6358 7.48867C41.0338 8.21667 40.7328 9.13367 40.7328 10.2397C40.7328 11.3457 41.0338 12.2697 41.6358 13.0117C42.2518 13.7397 43.0778 14.1037 44.1138 14.1037C45.1078 14.1037 45.9128 13.7467 46.5288 13.0327C47.1588 12.3187 47.4738 11.3877 47.4738 10.2397C47.4738 9.09167 47.1588 8.16067 46.5288 7.44667C45.9128 6.73267 45.1078 6.37567 44.1138 6.37567ZM52.0616 0.201669H54.0146V15.7417H52.0616V0.201669ZM62.0304 14.1877C62.7584 14.1877 63.3604 14.0057 63.8364 13.6417C64.3264 13.2777 64.6694 12.8227 64.8654 12.2767L66.9024 12.5707C66.5524 13.6627 65.9504 14.5027 65.0964 15.0907C64.2564 15.6647 63.2344 15.9517 62.0304 15.9517C60.4204 15.9517 59.1114 15.4197 58.1034 14.3557C57.0954 13.2777 56.5914 11.9057 56.5914 10.2397C56.5914 8.58767 57.0884 7.22267 58.0824 6.14467C59.0904 5.06667 60.3714 4.53467 61.9254 4.54867C63.5634 4.56267 64.8584 5.12967 65.8104 6.24967C66.7764 7.36967 67.2594 8.90967 67.2594 10.8697H58.6914C58.8034 11.8497 59.1534 12.6477 59.7414 13.2637C60.3294 13.8797 61.0924 14.1877 62.0304 14.1877ZM64.0254 7.21567C63.4654 6.61367 62.7584 6.31267 61.9044 6.31267C61.0504 6.31267 60.3364 6.61367 59.7624 7.21567C59.2024 7.80367 58.8594 8.48267 58.7334 9.25267H65.0544C64.9424 8.48267 64.5994 7.80367 64.0254 7.21567ZM80.9091 11.6047C80.9091 12.8927 80.4121 13.9427 79.4181 14.7547C78.4381 15.5527 77.1291 15.9517 75.4911 15.9517C73.6991 15.9517 72.2571 15.4967 71.1651 14.5867C70.0871 13.6627 69.4921 12.5007 69.3801 11.1007H71.7321C72.0121 13.0607 73.2371 14.0407 75.4071 14.0407C76.3591 14.0407 77.1501 13.8377 77.7801 13.4317C78.4241 13.0257 78.7461 12.4797 78.7461 11.7937C78.7461 11.4717 78.6691 11.1847 78.5151 10.9327C78.3751 10.6807 78.1931 10.4777 77.9691 10.3237C77.7591 10.1557 77.4721 10.0017 77.1081 9.86167C76.7581 9.72167 76.4221 9.61667 76.1001 9.54667C75.7921 9.46267 75.4071 9.36467 74.9451 9.25267C74.7351 9.21067 74.5811 9.17567 74.4831 9.14767C73.9231 9.00767 73.4331 8.86767 73.0131 8.72767C72.6071 8.58767 72.1801 8.39867 71.7321 8.16067C71.2981 7.92267 70.9341 7.65667 70.6401 7.36267C70.3601 7.06867 70.1291 6.69767 69.9471 6.24967C69.7651 5.80167 69.6741 5.30467 69.6741 4.75867C69.6741 3.58267 70.1641 2.56767 71.1441 1.71367C72.1241 0.845668 73.3981 0.411668 74.9661 0.411668C76.5481 0.411668 77.8571 0.838668 78.8931 1.69267C79.9431 2.54667 80.5591 3.66667 80.7411 5.05267H78.4521C78.3401 4.26867 77.9831 3.61767 77.3811 3.09967C76.7791 2.58167 75.9951 2.32267 75.0291 2.32267C74.1611 2.32267 73.4121 2.53267 72.7821 2.95267C72.1521 3.37267 71.8371 3.93267 71.8371 4.63267C71.8371 4.91267 71.8721 5.16467 71.9421 5.38867C72.0121 5.59867 72.1381 5.78767 72.3201 5.95567C72.5021 6.12367 72.6701 6.26367 72.8241 6.37567C72.9781 6.48767 73.2231 6.59967 73.5591 6.71167C73.8951 6.80967 74.1541 6.88667 74.3361 6.94267C74.5181 6.98467 74.8331 7.06167 75.2811 7.17367C75.7291 7.27167 76.0441 7.34167 76.2261 7.38367C76.8981 7.53767 77.4721 7.70567 77.9481 7.88767C78.4241 8.06967 78.9071 8.32167 79.3971 8.64367C79.9011 8.95167 80.2791 9.35767 80.5311 9.86167C80.7831 10.3517 80.9091 10.9327 80.9091 11.6047ZM89.1547 0.621668C90.6527 0.621668 91.8357 1.01367 92.7037 1.79767C93.5717 2.58167 94.0057 3.63167 94.0057 4.94767C94.0057 6.29167 93.5647 7.34867 92.6827 8.11867C91.8007 8.88867 90.6247 9.27367 89.1547 9.27367H86.0467V15.7417H83.9677V0.621668H89.1547ZM89.1757 7.32067C90.0437 7.32067 90.7087 7.11067 91.1707 6.69067C91.6327 6.25667 91.8637 5.67567 91.8637 4.94767C91.8637 4.19167 91.6257 3.61067 91.1497 3.20467C90.6737 2.78467 90.0157 2.57467 89.1757 2.57467H86.0467V7.32067H89.1757ZM105.75 15.7417L104.259 11.8567H97.2241L95.6701 15.7417H93.5071L99.7231 0.621668H101.823L108.018 15.7417H105.75ZM98.0011 9.90367H103.503L100.815 2.91067H100.773L98.0011 9.90367Z" fill="black"/>
</g>
<defs>
<clipPath id="clip0_1_49">
<rect width="110" height="20" fill="white"/>
</clipPath>
</defs>
</svg>
