<svg width="14" height="16" viewBox="0 0 14 16" fill="none" xmlns="http://www.w3.org/2000/svg">
<path d="M6.81543 2.93457V1.19824H7.54004V2.93457H6.81543ZM6.81543 5.43652V3.56348H7.54004V5.43652H6.81543ZM6.81543 7.78125V6.07227H7.54004V7.78125H6.81543ZM5.46191 9.40137L5.14062 8.75195L6.68555 7.96582L7.01367 8.61523L5.46191 9.40137ZM3.22656 10.5293L2.90527 9.87988L4.56641 9.03906L4.89453 9.68848L3.22656 10.5293ZM1.13477 11.5889L0.806641 10.9395L2.33105 10.1602L2.66602 10.8096L1.13477 11.5889ZM7.3418 8.61523L7.66992 7.96582L9.21484 8.75195L8.89355 9.40137L7.3418 8.61523ZM9.46094 9.68848L9.78906 9.03906L11.457 9.87988L11.1357 10.5293L9.46094 9.68848ZM11.6963 10.8096L12.0312 10.1602L13.5557 10.9395L13.2275 11.5889L11.6963 10.8096ZM1.18945 12.1221C0.906901 11.9626 0.697266 11.7803 0.560547 11.5752C0.423828 11.3701 0.355469 11.0671 0.355469 10.666V5.0127C0.355469 4.7347 0.412435 4.50228 0.526367 4.31543C0.640299 4.12858 0.811198 3.97135 1.03906 3.84375L6.15918 0.96582C6.49642 0.774414 6.83594 0.678711 7.17773 0.678711C7.52409 0.678711 7.86589 0.774414 8.20312 0.96582L13.3232 3.84375C13.5511 3.97135 13.7197 4.12858 13.8291 4.31543C13.943 4.50228 14 4.7347 14 5.0127V10.666C14 11.0671 13.9316 11.3701 13.7949 11.5752C13.6628 11.7803 13.4531 11.9626 13.166 12.1221L7.7041 15.1777C7.35775 15.3691 7.00911 15.3691 6.6582 15.1777L1.18945 12.1221ZM1.70215 11.459L6.76758 14.2822V8.32812L1.16211 5.19043V10.6318C1.16211 10.8232 1.19629 10.9805 1.26465 11.1035C1.33757 11.2266 1.4834 11.3451 1.70215 11.459ZM12.6602 11.459C12.8743 11.3451 13.0156 11.2266 13.084 11.1035C13.1569 10.9805 13.1934 10.8232 13.1934 10.6318V5.19043L7.58789 8.32812V14.2822L12.6602 11.459ZM7.18457 7.60352L12.79 4.48633L7.81348 1.68359C7.39421 1.44206 6.97266 1.44206 6.54883 1.68359L1.57227 4.48633L7.18457 7.60352Z" fill="#0096F7"/>
</svg>
