<svg fill="none" height="14" viewBox="0 0 14 14" width="14" xmlns="http://www.w3.org/2000/svg"><path d="m2.15332 14c-.71289 0-1.25-.1807-1.611328-.542-.361328-.3564-.541992-.8887-.541992-1.5967v-8.97946c0-.70801.180664-1.24024.541992-1.59668.361328-.361332.898438-.541996 1.611328-.541996h8.94288c.7178 0 1.2573.180664 1.6186.541996.3614.35644.542.88867.542 1.59668v8.97946c0 .7032-.1806 1.2354-.542 1.5967-.3613.3613-.9008.542-1.6186.542zm.02197-.9009h8.90621c.4053 0 .7178-.1074.9375-.3222.2247-.2149.337-.5347.337-.9595v-8.89162c0-.4248-.1123-.74463-.337-.95947-.2197-.21485-.5322-.32227-.9375-.32227h-8.90621c-.41504 0-.73242.10742-.95215.32227-.21484.21484-.322261.53467-.322261.95947v8.89162c0 .4248.107421.7446.322261.9595.21973.2148.53711.3222.95215.3222zm6.84815-3.97703c-.12696 0-.22949-.03906-.30762-.11719-.07812-.083-.11719-.19287-.11719-.32959v-1.61133l.07325-1.20849-.91553.98144-3.17871 3.17139c-.08789.0879-.19532.1318-.32227.1318s-.22949-.039-.30762-.1172c-.07324-.07808-.10986-.18061-.10986-.30757 0-.1123.04639-.21484.13916-.30762l3.17871-3.17138.98145-.9375-1.05469.08056h-1.77979c-.13183 0-.23925-.03662-.32226-.10986-.08301-.07812-.12451-.18066-.12451-.30762 0-.12207.03906-.21972.11718-.29296.08301-.07813.19043-.11719.32227-.11719h3.67676c.1416 0 .2539.03662.33691.10986s.12451.19043.12451.35156v3.65479c0 .13183-.03906.2417-.11718.32959-.07325.08301-.1709.12451-.29297.12451z" fill="#000" fill-opacity=".4"/></svg>