<svg width="14" height="14" viewBox="0 0 14 14" fill="none" xmlns="http://www.w3.org/2000/svg">
<path d="M2.15332 13.9717C1.44043 13.9717 0.90332 13.791 0.541992 13.4297C0.180664 13.0732 0 12.541 0 11.833V2.85352C0 2.14551 0.180664 1.61328 0.541992 1.25684C0.90332 0.895508 1.44043 0.714844 2.15332 0.714844H11.0962C11.814 0.714844 12.3535 0.895508 12.7148 1.25684C13.0762 1.61328 13.2568 2.14551 13.2568 2.85352V11.833C13.2568 12.5361 13.0762 13.0684 12.7148 13.4297C12.3535 13.791 11.814 13.9717 11.0962 13.9717H2.15332ZM2.17529 13.0708H11.0815C11.4868 13.0708 11.7993 12.9634 12.019 12.7485C12.2437 12.5337 12.356 12.2139 12.356 11.7891V2.89746C12.356 2.47266 12.2437 2.15283 12.019 1.93799C11.7993 1.72314 11.4868 1.61572 11.0815 1.61572H2.17529C1.76025 1.61572 1.44287 1.72314 1.22314 1.93799C1.0083 2.15283 0.900879 2.47266 0.900879 2.89746V11.7891C0.900879 12.2139 1.0083 12.5337 1.22314 12.7485C1.44287 12.9634 1.76025 13.0708 2.17529 13.0708ZM5.23682 10.1997C5.08545 10.2876 4.93896 10.3022 4.79736 10.2437C4.65576 10.1851 4.58496 10.0752 4.58496 9.91406V4.75781C4.58496 4.59668 4.6582 4.48682 4.80469 4.42822C4.95117 4.36963 5.09521 4.38428 5.23682 4.47217L9.42627 6.98438C9.56299 7.06738 9.63135 7.18701 9.63135 7.34326C9.63623 7.49951 9.56787 7.62158 9.42627 7.70947L5.23682 10.1997Z" fill="black" fill-opacity="0.4"/>
</svg>
