<svg fill="none" height="16" viewBox="0 0 17 16" width="17" xmlns="http://www.w3.org/2000/svg"><path d="m6.34961 15.5557c-.46875 0-.86719-.2022-1.19531-.6065l-4.552738-5.6074c-.128906-.15235-.222656-.30176-.28125-.44825-.052734-.14648-.079101-.29882-.079101-.45703 0-.35156.117187-.6416.351562-.87011.234375-.22852.530277-.34278.887697-.34278.4043 0 .74414.17285 1.01953.51856l3.81445 4.83401 7.44435-11.79495c.1523-.234375.3105-.398438.4746-.492188.1641-.099609.3691-.149414.6152-.149414.3575 0 .6504.111329.8789.333985.2286.222656.3428.506836.3428.852537 0 .14063-.0234.28125-.0703.42188-.0469.14062-.1201.28711-.2197.43945l-8.22659 12.7266c-.28125.4277-.68262.6416-1.2041.6416z" fill="#fff"/></svg>