<svg width="17" height="16" viewBox="0 0 17 16" fill="none" xmlns="http://www.w3.org/2000/svg">
<path d="M6.34961 15.5557C5.88086 15.5557 5.48242 15.3535 5.1543 14.9492L0.601562 9.3418C0.472656 9.18945 0.378906 9.04004 0.320312 8.89355C0.267578 8.74707 0.241211 8.59473 0.241211 8.43652C0.241211 8.08496 0.358398 7.79492 0.592773 7.56641C0.827148 7.33789 1.12305 7.22363 1.48047 7.22363C1.88477 7.22363 2.22461 7.39648 2.5 7.74219L6.31445 12.5762L13.7588 0.78125C13.9111 0.546875 14.0693 0.382812 14.2334 0.289062C14.3975 0.189453 14.6025 0.139648 14.8486 0.139648C15.2061 0.139648 15.499 0.250977 15.7275 0.473633C15.9561 0.696289 16.0703 0.980469 16.0703 1.32617C16.0703 1.4668 16.0469 1.60742 16 1.74805C15.9531 1.88867 15.8799 2.03516 15.7803 2.1875L7.55371 14.9141C7.27246 15.3418 6.87109 15.5557 6.34961 15.5557Z" fill="rgba(0,0,0,0.8)"/>
</svg>
