<svg fill="none" height="13" viewBox="0 0 7 13" width="7" xmlns="http://www.w3.org/2000/svg"><path d="m7 6.43359c0 .08659-.01823.16862-.05469.2461-.0319.07291-.07975.14127-.14355.20508l-5.41406 5.29783c-.12305.1231-.27344.1846-.451177.1846-.113932 0-.21875-.0274-.314453-.082-.095703-.0547-.170898-.1299-.225586-.2256-.054687-.0912-.082031-.196-.082031-.3145 0-.1686.059245-.3167.177735-.4443l4.976562-4.86721-4.976562-4.86718c-.11849-.12761-.177735-.27572-.177735-.44434 0-.11849.027344-.223307.082031-.314453.054688-.095703.129883-.170898.225586-.225586.095703-.054687.200521-.082031.314453-.082031.177737 0 .328127.059245.451177.177734l5.41406 5.304686c.0638.0638.11165.13444.14355.21192.03646.07291.05469.15267.05469.23925z" fill="#fff" fill-opacity=".8"/></svg>