<svg fill="none" height="15" viewBox="0 0 15 15" width="15" xmlns="http://www.w3.org/2000/svg"><path d="m7.47754 14.0371c.95247 0 1.84798-.1823 2.68656-.5469.8431-.3645 1.5859-.8681 2.2285-1.5107s1.1461-1.3831 1.5107-2.22169c.3646-.8431.5469-1.74088.5469-2.69336 0-.95247-.1823-1.84798-.5469-2.68652-.3646-.8431-.8681-1.58594-1.5107-2.22852-.6426-.64257-1.3854-1.14615-2.2285-1.510738-.84314-.364583-1.74092-.5468751-2.6934-.5468751-.95247 0-1.85026.1822921-2.69336.5468751-.83854.364588-1.5791.868168-2.22168 1.510738-.63802.64258-1.13932 1.38542-1.5039 2.22852-.364586.83854-.546877 1.73405-.546877 2.68652 0 .95248.182291 1.85026.546877 2.69336.36458.83859.86816 1.57909 1.51074 2.22169s1.38314 1.1462 2.22168 1.5107c.8431.3646 1.74089.5469 2.69336.5469zm0-1.1621c-.80664 0-1.56087-.1504-2.2627-.4512-.70182-.3008-1.31933-.7155-1.85254-1.2441-.52864-.5332-.94335-1.1507-1.24414-1.85255-.29622-.70182-.44433-1.45606-.44433-2.2627s.14811-1.56087.44433-2.26269c.30079-.70183.7155-1.31934 1.24414-1.85254.52865-.5332 1.14388-.94792 1.84571-1.24414.70182-.30078 1.45605-.45117 2.26269-.45117s1.56088.15039 2.2627.45117c.7064.29622 1.3239.71094 1.8525 1.24414.5332.5332.9502 1.15071 1.251 1.85254.3008.70182.4512 1.45605.4512 2.26269s-.1504 1.56088-.4512 2.2627c-.2962.70185-.7109 1.31935-1.2441 1.85255-.5332.5286-1.1507.9433-1.85257 1.2441-.70182.3008-1.45605.4512-2.26269.4512zm.00684-9.29688c-.1504 0-.27344.04786-.36915.14356-.0957.0957-.14355.21875-.14355.36914v3.41797l.04785 1.44238-.68359-.82031-.81348-.82031c-.10026-.10026-.22103-.15039-.3623-.15039-.14128 0-.25977.04785-.35547.14355-.09115.0957-.13672.21191-.13672.34863 0 .15039.04557.26888.13672.35547l2.2832 2.27639c.1276.1276.25977.1914.39649.1914.13671 0 .26888-.0638.39648-.1914l2.28324-2.27639c.0911-.09114.1367-.20963.1367-.35547 0-.13672-.0479-.25293-.1436-.34863s-.21417-.14355-.35544-.14355c-.15039 0-.27116.05013-.36231.15039l-.80664.82031-.69043.82715.04785-1.44922v-3.41797c0-.15039-.04785-.27344-.14355-.36914s-.21647-.14356-.3623-.14356z" fill="#0096f7"/></svg>