<svg fill="none" height="21" viewBox="0 0 21 21" width="21" xmlns="http://www.w3.org/2000/svg"><path d="m8.05493 13.6954h2.10997v-3.36h-2.10997v-1.32005h3.66997v4.68005h2.22v1.32h-5.88997zm1.81999-7.31005c0-.25.09002-.46.27998-.64.18-.18.44-.26.77-.26s.6.09.8.26c.2.18.3.39.3.64s-.1.47-.3.63-.47.25-.8.25-.58-.08-.77-.25c-.17996-.16-.27998-.37-.27998-.63z" fill="#000" fill-opacity=".8"/><rect height="19.5" rx="9.75" stroke="#000" stroke-opacity=".8" stroke-width="1.5" width="19.5" x=".75" y=".75"/></svg>
