<svg fill="none" height="15" viewBox="0 0 15 15" width="15" xmlns="http://www.w3.org/2000/svg"><path d="m.922363 14.0059c-.128906-.1231-.213867-.2696-.254883-.4395-.041015-.1699-.041015-.3398 0-.5098.046875-.1699.131836-.3134.254883-.4306l5.396487-5.41409-5.396487-5.40527c-.123047-.11719-.205078-.26074-.246093-.43066-.041016-.16993-.041016-.33985 0-.509769.041015-.169922.123046-.316406.246093-.439453.128907-.128906.278317-.213867.448247-.254883.16992-.041016.33984-.041016.50976 0s.31641.123047.43945.246094l5.40528 5.405271 5.3965-5.405271c.123-.128907.2695-.210938.4394-.246094.17-.041016.3369-.041016.501 0 .1699.041016.3223.125977.457.254883.1231.123047.2051.269531.2461.439453.0469.169919.0469.339839 0 .509769-.041.16406-.123.31054-.2461.43945l-5.39644 5.39648 5.39644 5.40529c.1231.1289.2051.2783.2461.4482.0411.1641.0411.3311 0 .501-.041.1699-.123.3164-.2461.4395-.1289.1289-.2783.2138-.4482.2548-.1699.0411-.3398.0411-.5098 0-.1699-.041-.3164-.123-.4394-.2461l-5.3965-5.40522-5.40528 5.40522c-.12304.1231-.26953.2051-.43945.2461-.16406.0411-.33398.0411-.50976 0-.16993-.041-.31934-.1259-.448247-.2548z" fill="#000" fill-opacity=".2"/></svg>