<svg xmlns="http://www.w3.org/2000/svg" width="315" height="432" viewBox="0 0 315 432"><rect width="100%" height="100%" fill="#DDDDDD"/><path fill="#999999" d="m67.305 209.76-2.73-.48q.32-2.19 1.22-3.84.9-1.64 2.26-2.75 1.35-1.1 3.11-1.66 1.75-.55 3.76-.55 2.1 0 3.8.6 1.69.59 2.88 1.66 1.2 1.06 1.84 2.48.64 1.43.64 3.09 0 1.45-.32 2.55-.33 1.11-.94 1.92-.61.82-1.51 1.39t-2.04.94q2.73.87 4.08 2.63 1.34 1.76 1.34 4.43 0 2.27-.84 4.01t-2.27 2.93-3.31 1.8-3.98.61q-2.28 0-3.99-.53-1.7-.52-2.96-1.55t-2.14-2.52-1.51-3.45l2.29-.94q.9-.38 1.69-.2t1.14.85q.38.73.83 1.45.45.71 1.08 1.27.63.55 1.49.9.85.35 2.02.35 1.32 0 2.31-.43t1.65-1.13q.66-.69.99-1.54.32-.85.32-1.71 0-1.09-.23-1.99-.23-.89-.96-1.52-.74-.63-2.11-.99-1.38-.35-3.69-.35v-3.7q1.91-.02 3.17-.36 1.26-.33 2.01-.93.74-.6 1.04-1.44.29-.84.29-1.85 0-2.14-1.2-3.25-1.19-1.11-3.19-1.11-.92 0-1.7.26t-1.4.73q-.62.48-1.04 1.11t-.63 1.38q-.35.97-.93 1.28-.58.32-1.63.15m35.64 17.53h5.46v3.89h-16.8v-3.89h6.15v-17.7q0-1.05.06-2.16l-4.36 3.65q-.38.3-.75.37t-.69.01q-.33-.06-.58-.22t-.38-.35l-1.64-2.24 9.27-7.88h4.26zm17.68-21.77-1.07 6.32q1.01-.21 1.93-.31.93-.09 1.79-.09 2.39 0 4.22.71 1.82.72 3.06 1.98t1.87 2.95.63 3.64q0 2.42-.85 4.41-.85 2-2.36 3.41-1.51 1.42-3.58 2.2t-4.51.78q-1.42 0-2.7-.3-1.29-.29-2.41-.79-1.12-.49-2.08-1.13-.95-.64-1.71-1.35l1.6-2.21q.5-.71 1.32-.71.52 0 1.07.33.55.34 1.25.74t1.66.73q.95.34 2.3.34 1.43 0 2.52-.46 1.09-.47 1.82-1.29.72-.83 1.09-1.98.36-1.14.36-2.49 0-2.48-1.43-3.87-1.44-1.4-4.26-1.4-2.16 0-4.43.8l-3.23-.92 2.52-14.75h14.99v2.21q0 1.11-.69 1.8-.69.7-2.35.7zm47.06 18.71-2.75 2.71-7.12-7.12-7.18 7.16-2.75-2.71 7.18-7.2-6.85-6.85 2.73-2.73 6.85 6.85 6.8-6.81 2.78 2.73-6.83 6.83zm18.19-4.5h9.24v-9.93q0-1.41.19-3.11zm13.75 0h3.82v3.01q0 .42-.27.72-.27.31-.78.31h-2.77v7.41h-4.51v-7.41h-12.81q-.53 0-.93-.33-.4-.32-.5-.81l-.55-2.62 14.39-19.22h4.91zm9.89-9.97-2.73-.48q.32-2.19 1.22-3.84.9-1.64 2.26-2.75 1.35-1.1 3.11-1.66 1.75-.55 3.77-.55 2.1 0 3.79.6 1.69.59 2.88 1.66 1.2 1.06 1.84 2.48.64 1.43.64 3.09 0 1.45-.32 2.55-.33 1.11-.94 1.92-.61.82-1.51 1.39t-2.04.94q2.73.87 4.08 2.63 1.34 1.76 1.34 4.43 0 2.27-.84 4.01t-2.27 2.93q-1.42 1.19-3.3 1.8t-3.98.61q-2.29 0-3.99-.53-1.7-.52-2.96-1.55t-2.15-2.52q-.88-1.49-1.51-3.45l2.29-.94q.9-.38 1.69-.2t1.15.85q.37.73.83 1.45.45.71 1.08 1.27.63.55 1.48.9t2.02.35q1.33 0 2.31-.43.99-.43 1.65-1.13.66-.69.99-1.54.32-.85.32-1.71 0-1.09-.23-1.99-.23-.89-.96-1.52-.74-.63-2.11-.99-1.38-.35-3.69-.35v-3.7q1.91-.02 3.17-.36 1.26-.33 2.01-.93.74-.6 1.04-1.44.29-.84.29-1.85 0-2.14-1.2-3.25-1.19-1.11-3.19-1.11-.92 0-1.7.26t-1.39.73q-.62.48-1.04 1.11t-.63 1.38q-.36.97-.94 1.28-.58.32-1.63.15m32.18 16.59h7.79q.84 0 1.33.47t.49 1.25v3.11h-20.83v-1.72q0-.53.22-1.1.22-.58.71-1.04l9.21-9.24q1.16-1.18 2.07-2.25.92-1.07 1.53-2.12t.93-2.13q.33-1.09.33-2.28 0-1.09-.32-1.92-.31-.83-.89-1.4t-1.39-.85-1.81-.28q-.93 0-1.72.26-.78.26-1.39.73-.61.48-1.03 1.11t-.63 1.38q-.36.97-.93 1.28-.56.32-1.63.15l-2.73-.48q.31-2.19 1.21-3.84.91-1.64 2.26-2.75 1.36-1.1 3.11-1.66 1.75-.55 3.77-.55 2.1 0 3.84.62 1.75.62 2.99 1.75 1.23 1.13 1.93 2.73.69 1.6.69 3.55 0 1.68-.49 3.11-.5 1.43-1.33 2.73t-1.94 2.52-2.33 2.48l-6.85 6.99q.99-.3 1.97-.45.97-.16 1.86-.16"/></svg>